<?xml version="1.0" encoding="UTF-8" standalone="no"?>
<!DOCTYPE svg PUBLIC "-//W3C//DTD SVG 1.1//EN"
 "http://www.w3.org/Graphics/SVG/1.1/DTD/svg11.dtd">
<!-- Generated by graphviz version 2.42.4 (0)
 -->
<!-- Title: SliceIR Pages: 1 -->
<svg width="5830pt" height="184pt"
 viewBox="0.00 0.00 5830.00 184.00" xmlns="http://www.w3.org/2000/svg" xmlns:xlink="http://www.w3.org/1999/xlink">
<g id="graph0" class="graph" transform="scale(1 1) rotate(0) translate(4 180)">
<title>SliceIR</title>
<polygon fill="white" stroke="transparent" points="-4,4 -4,-180 5826,-180 5826,4 -4,4"/>
<!-- node_128111372281776 -->
<g id="node1" class="node">
<title>node_128111372281776</title>
<polygon fill="#f8f9fa" stroke="black" points="2729,-106.5 2729,-175.5 3092,-175.5 3092,-106.5 2729,-106.5"/>
<text text-anchor="middle" x="2815.5" y="-160.3" font-family="Courier,monospace" font-size="14.00">Rank:0</text>
<polyline fill="none" stroke="black" points="2729,-152.5 2902,-152.5 "/>
<text text-anchor="middle" x="2815.5" y="-137.3" font-family="Courier,monospace" font-size="14.00">Depth:0</text>
<polyline fill="none" stroke="black" points="2729,-129.5 2902,-129.5 "/>
<text text-anchor="middle" x="2815.5" y="-114.3" font-family="Courier,monospace" font-size="14.00">child_exec:PARALLEL</text>
<polyline fill="none" stroke="black" points="2902,-106.5 2902,-175.5 "/>
<text text-anchor="middle" x="2997" y="-160.3" font-family="Courier,monospace" font-size="14.00">Shape:(4, 4, 4)</text>
<polyline fill="none" stroke="black" points="2902,-152.5 3092,-152.5 "/>
<text text-anchor="middle" x="2997" y="-137.3" font-family="Courier,monospace" font-size="14.00">Slice:[0:4, 0:4, 0:4]</text>
<polyline fill="none" stroke="black" points="2902,-129.5 3092,-129.5 "/>
<text text-anchor="middle" x="2997" y="-114.3" font-family="Courier,monospace" font-size="14.00">Offset:(0, 0, 0)</text>
</g>
<!-- node_128111372137920 -->
<g id="node2" class="node">
<title>node_128111372137920</title>
<polygon fill="#f8f9fa" stroke="black" points="0,-0.5 0,-69.5 347,-69.5 347,-0.5 0,-0.5"/>
<text text-anchor="middle" x="78.5" y="-54.3" font-family="Courier,monospace" font-size="14.00">Rank:1</text>
<polyline fill="none" stroke="black" points="0,-46.5 157,-46.5 "/>
<text text-anchor="middle" x="78.5" y="-31.3" font-family="Courier,monospace" font-size="14.00">Depth:1</text>
<polyline fill="none" stroke="black" points="0,-23.5 157,-23.5 "/>
<text text-anchor="middle" x="78.5" y="-8.3" font-family="Courier,monospace" font-size="14.00">child_exec:SERIAL</text>
<polyline fill="none" stroke="black" points="157,-0.5 157,-69.5 "/>
<text text-anchor="middle" x="252" y="-54.3" font-family="Courier,monospace" font-size="14.00">Shape:(1, 4, 1)</text>
<polyline fill="none" stroke="black" points="157,-46.5 347,-46.5 "/>
<text text-anchor="middle" x="252" y="-31.3" font-family="Courier,monospace" font-size="14.00">Slice:[1:2, 0:4, 2:3]</text>
<polyline fill="none" stroke="black" points="157,-23.5 347,-23.5 "/>
<text text-anchor="middle" x="252" y="-8.3" font-family="Courier,monospace" font-size="14.00">Offset:(1, 0, 2)</text>
</g>
<!-- node_128111372281776&#45;&gt;node_128111372137920 -->
<g id="edge1" class="edge">
<title>node_128111372281776&#45;&gt;node_128111372137920</title>
<path fill="none" stroke="black" d="M2728.8,-135.02C2169.6,-119.7 503.67,-74.06 357.45,-68.89"/>
<polygon fill="black" stroke="black" points="357.35,-65.38 347.21,-68.45 357.05,-72.38 357.35,-65.38"/>
</g>
<!-- node_128111372138160 -->
<g id="node3" class="node">
<title>node_128111372138160</title>
<polygon fill="#f8f9fa" stroke="black" points="365,-0.5 365,-69.5 712,-69.5 712,-0.5 365,-0.5"/>
<text text-anchor="middle" x="443.5" y="-54.3" font-family="Courier,monospace" font-size="14.00">Rank:7</text>
<polyline fill="none" stroke="black" points="365,-46.5 522,-46.5 "/>
<text text-anchor="middle" x="443.5" y="-31.3" font-family="Courier,monospace" font-size="14.00">Depth:1</text>
<polyline fill="none" stroke="black" points="365,-23.5 522,-23.5 "/>
<text text-anchor="middle" x="443.5" y="-8.3" font-family="Courier,monospace" font-size="14.00">child_exec:SERIAL</text>
<polyline fill="none" stroke="black" points="522,-0.5 522,-69.5 "/>
<text text-anchor="middle" x="617" y="-54.3" font-family="Courier,monospace" font-size="14.00">Shape:(1, 4, 1)</text>
<polyline fill="none" stroke="black" points="522,-46.5 712,-46.5 "/>
<text text-anchor="middle" x="617" y="-31.3" font-family="Courier,monospace" font-size="14.00">Slice:[2:3, 0:4, 2:3]</text>
<polyline fill="none" stroke="black" points="522,-23.5 712,-23.5 "/>
<text text-anchor="middle" x="617" y="-8.3" font-family="Courier,monospace" font-size="14.00">Offset:(2, 0, 2)</text>
</g>
<!-- node_128111372281776&#45;&gt;node_128111372138160 -->
<g id="edge2" class="edge">
<title>node_128111372281776&#45;&gt;node_128111372138160</title>
<path fill="none" stroke="black" d="M2728.95,-134.2C2227.95,-118.18 854.65,-74.29 722.44,-68.95"/>
<polygon fill="black" stroke="black" points="722.36,-65.44 712.21,-68.45 722.03,-72.43 722.36,-65.44"/>
</g>
<!-- node_128111372264912 -->
<g id="node4" class="node">
<title>node_128111372264912</title>
<polygon fill="#f8f9fa" stroke="black" points="730,-0.5 730,-69.5 1077,-69.5 1077,-0.5 730,-0.5"/>
<text text-anchor="middle" x="808.5" y="-54.3" font-family="Courier,monospace" font-size="14.00">Rank:9</text>
<polyline fill="none" stroke="black" points="730,-46.5 887,-46.5 "/>
<text text-anchor="middle" x="808.5" y="-31.3" font-family="Courier,monospace" font-size="14.00">Depth:1</text>
<polyline fill="none" stroke="black" points="730,-23.5 887,-23.5 "/>
<text text-anchor="middle" x="808.5" y="-8.3" font-family="Courier,monospace" font-size="14.00">child_exec:SERIAL</text>
<polyline fill="none" stroke="black" points="887,-0.5 887,-69.5 "/>
<text text-anchor="middle" x="982" y="-54.3" font-family="Courier,monospace" font-size="14.00">Shape:(1, 4, 1)</text>
<polyline fill="none" stroke="black" points="887,-46.5 1077,-46.5 "/>
<text text-anchor="middle" x="982" y="-31.3" font-family="Courier,monospace" font-size="14.00">Slice:[3:4, 0:4, 3:4]</text>
<polyline fill="none" stroke="black" points="887,-23.5 1077,-23.5 "/>
<text text-anchor="middle" x="982" y="-8.3" font-family="Courier,monospace" font-size="14.00">Offset:(3, 0, 3)</text>
</g>
<!-- node_128111372281776&#45;&gt;node_128111372264912 -->
<g id="edge3" class="edge">
<title>node_128111372281776&#45;&gt;node_128111372264912</title>
<path fill="none" stroke="black" d="M2728.84,-133.03C2290.67,-116.23 1203.66,-74.53 1087.3,-69.02"/>
<polygon fill="black" stroke="black" points="1087.39,-65.52 1077.21,-68.45 1087,-72.5 1087.39,-65.52"/>
</g>
<!-- node_128111372736848 -->
<g id="node5" class="node">
<title>node_128111372736848</title>
<polygon fill="#f8f9fa" stroke="black" points="1095,-0.5 1095,-69.5 1442,-69.5 1442,-0.5 1095,-0.5"/>
<text text-anchor="middle" x="1173.5" y="-54.3" font-family="Courier,monospace" font-size="14.00">Rank:15</text>
<polyline fill="none" stroke="black" points="1095,-46.5 1252,-46.5 "/>
<text text-anchor="middle" x="1173.5" y="-31.3" font-family="Courier,monospace" font-size="14.00">Depth:1</text>
<polyline fill="none" stroke="black" points="1095,-23.5 1252,-23.5 "/>
<text text-anchor="middle" x="1173.5" y="-8.3" font-family="Courier,monospace" font-size="14.00">child_exec:SERIAL</text>
<polyline fill="none" stroke="black" points="1252,-0.5 1252,-69.5 "/>
<text text-anchor="middle" x="1347" y="-54.3" font-family="Courier,monospace" font-size="14.00">Shape:(1, 4, 1)</text>
<polyline fill="none" stroke="black" points="1252,-46.5 1442,-46.5 "/>
<text text-anchor="middle" x="1347" y="-31.3" font-family="Courier,monospace" font-size="14.00">Slice:[0:1, 0:4, 0:1]</text>
<polyline fill="none" stroke="black" points="1252,-23.5 1442,-23.5 "/>
<text text-anchor="middle" x="1347" y="-8.3" font-family="Courier,monospace" font-size="14.00">Offset:(0, 0, 0)</text>
</g>
<!-- node_128111372281776&#45;&gt;node_128111372736848 -->
<g id="edge4" class="edge">
<title>node_128111372281776&#45;&gt;node_128111372736848</title>
<path fill="none" stroke="black" d="M2728.91,-131.29C2360.64,-113.64 1552.77,-74.9 1452.44,-69.13"/>
<polygon fill="black" stroke="black" points="1452.42,-65.62 1442.21,-68.45 1451.95,-72.61 1452.42,-65.62"/>
</g>
<!-- node_128111372802512 -->
<g id="node6" class="node">
<title>node_128111372802512</title>
<polygon fill="#f8f9fa" stroke="black" points="1460,-0.5 1460,-69.5 1807,-69.5 1807,-0.5 1460,-0.5"/>
<text text-anchor="middle" x="1538.5" y="-54.3" font-family="Courier,monospace" font-size="14.00">Rank:17</text>
<polyline fill="none" stroke="black" points="1460,-46.5 1617,-46.5 "/>
<text text-anchor="middle" x="1538.5" y="-31.3" font-family="Courier,monospace" font-size="14.00">Depth:1</text>
<polyline fill="none" stroke="black" points="1460,-23.5 1617,-23.5 "/>
<text text-anchor="middle" x="1538.5" y="-8.3" font-family="Courier,monospace" font-size="14.00">child_exec:SERIAL</text>
<polyline fill="none" stroke="black" points="1617,-0.5 1617,-69.5 "/>
<text text-anchor="middle" x="1712" y="-54.3" font-family="Courier,monospace" font-size="14.00">Shape:(1, 4, 1)</text>
<polyline fill="none" stroke="black" points="1617,-46.5 1807,-46.5 "/>
<text text-anchor="middle" x="1712" y="-31.3" font-family="Courier,monospace" font-size="14.00">Slice:[1:2, 0:4, 1:2]</text>
<polyline fill="none" stroke="black" points="1617,-23.5 1807,-23.5 "/>
<text text-anchor="middle" x="1712" y="-8.3" font-family="Courier,monospace" font-size="14.00">Offset:(1, 0, 1)</text>
</g>
<!-- node_128111372281776&#45;&gt;node_128111372802512 -->
<g id="edge5" class="edge">
<title>node_128111372281776&#45;&gt;node_128111372802512</title>
<path fill="none" stroke="black" d="M2728.76,-128.38C2439.37,-109.88 1898.72,-75.32 1817.45,-69.31"/>
<polygon fill="black" stroke="black" points="1817.46,-65.79 1807.21,-68.45 1816.88,-72.77 1817.46,-65.79"/>
</g>
<!-- node_128111372802784 -->
<g id="node7" class="node">
<title>node_128111372802784</title>
<polygon fill="#f8f9fa" stroke="black" points="1825,-0.5 1825,-69.5 2172,-69.5 2172,-0.5 1825,-0.5"/>
<text text-anchor="middle" x="1903.5" y="-54.3" font-family="Courier,monospace" font-size="14.00">Rank:23</text>
<polyline fill="none" stroke="black" points="1825,-46.5 1982,-46.5 "/>
<text text-anchor="middle" x="1903.5" y="-31.3" font-family="Courier,monospace" font-size="14.00">Depth:1</text>
<polyline fill="none" stroke="black" points="1825,-23.5 1982,-23.5 "/>
<text text-anchor="middle" x="1903.5" y="-8.3" font-family="Courier,monospace" font-size="14.00">child_exec:SERIAL</text>
<polyline fill="none" stroke="black" points="1982,-0.5 1982,-69.5 "/>
<text text-anchor="middle" x="2077" y="-54.3" font-family="Courier,monospace" font-size="14.00">Shape:(1, 4, 1)</text>
<polyline fill="none" stroke="black" points="1982,-46.5 2172,-46.5 "/>
<text text-anchor="middle" x="2077" y="-31.3" font-family="Courier,monospace" font-size="14.00">Slice:[2:3, 0:4, 1:2]</text>
<polyline fill="none" stroke="black" points="1982,-23.5 2172,-23.5 "/>
<text text-anchor="middle" x="2077" y="-8.3" font-family="Courier,monospace" font-size="14.00">Offset:(2, 0, 1)</text>
</g>
<!-- node_128111372281776&#45;&gt;node_128111372802784 -->
<g id="edge6" class="edge">
<title>node_128111372281776&#45;&gt;node_128111372802784</title>
<path fill="none" stroke="black" d="M2728.64,-122.56C2532.28,-103.73 2240.47,-75.75 2182.33,-69.61"/>
<polygon fill="black" stroke="black" points="2182.54,-66.11 2172.21,-68.45 2181.74,-73.07 2182.54,-66.11"/>
</g>
<!-- node_128111372720112 -->
<g id="node8" class="node">
<title>node_128111372720112</title>
<polygon fill="#f8f9fa" stroke="black" points="2190,-0.5 2190,-69.5 2537,-69.5 2537,-0.5 2190,-0.5"/>
<text text-anchor="middle" x="2268.5" y="-54.3" font-family="Courier,monospace" font-size="14.00">Rank:25</text>
<polyline fill="none" stroke="black" points="2190,-46.5 2347,-46.5 "/>
<text text-anchor="middle" x="2268.5" y="-31.3" font-family="Courier,monospace" font-size="14.00">Depth:1</text>
<polyline fill="none" stroke="black" points="2190,-23.5 2347,-23.5 "/>
<text text-anchor="middle" x="2268.5" y="-8.3" font-family="Courier,monospace" font-size="14.00">child_exec:SERIAL</text>
<polyline fill="none" stroke="black" points="2347,-0.5 2347,-69.5 "/>
<text text-anchor="middle" x="2442" y="-54.3" font-family="Courier,monospace" font-size="14.00">Shape:(1, 4, 1)</text>
<polyline fill="none" stroke="black" points="2347,-46.5 2537,-46.5 "/>
<text text-anchor="middle" x="2442" y="-31.3" font-family="Courier,monospace" font-size="14.00">Slice:[3:4, 0:4, 2:3]</text>
<polyline fill="none" stroke="black" points="2347,-23.5 2537,-23.5 "/>
<text text-anchor="middle" x="2442" y="-8.3" font-family="Courier,monospace" font-size="14.00">Offset:(3, 0, 2)</text>
</g>
<!-- node_128111372281776&#45;&gt;node_128111372720112 -->
<g id="edge7" class="edge">
<title>node_128111372281776&#45;&gt;node_128111372720112</title>
<path fill="none" stroke="black" d="M2734.04,-106.45C2674.29,-95.09 2607.45,-82.38 2547.16,-70.92"/>
<polygon fill="black" stroke="black" points="2547.63,-67.45 2537.16,-69.02 2546.33,-74.32 2547.63,-67.45"/>
</g>
<!-- node_128111372720784 -->
<g id="node9" class="node">
<title>node_128111372720784</title>
<polygon fill="#f8f9fa" stroke="black" points="2555,-0.5 2555,-69.5 2902,-69.5 2902,-0.5 2555,-0.5"/>
<text text-anchor="middle" x="2633.5" y="-54.3" font-family="Courier,monospace" font-size="14.00">Rank:31</text>
<polyline fill="none" stroke="black" points="2555,-46.5 2712,-46.5 "/>
<text text-anchor="middle" x="2633.5" y="-31.3" font-family="Courier,monospace" font-size="14.00">Depth:1</text>
<polyline fill="none" stroke="black" points="2555,-23.5 2712,-23.5 "/>
<text text-anchor="middle" x="2633.5" y="-8.3" font-family="Courier,monospace" font-size="14.00">child_exec:SERIAL</text>
<polyline fill="none" stroke="black" points="2712,-0.5 2712,-69.5 "/>
<text text-anchor="middle" x="2807" y="-54.3" font-family="Courier,monospace" font-size="14.00">Shape:(1, 4, 1)</text>
<polyline fill="none" stroke="black" points="2712,-46.5 2902,-46.5 "/>
<text text-anchor="middle" x="2807" y="-31.3" font-family="Courier,monospace" font-size="14.00">Slice:[0:1, 0:4, 3:4]</text>
<polyline fill="none" stroke="black" points="2712,-23.5 2902,-23.5 "/>
<text text-anchor="middle" x="2807" y="-8.3" font-family="Courier,monospace" font-size="14.00">Offset:(0, 0, 3)</text>
</g>
<!-- node_128111372281776&#45;&gt;node_128111372720784 -->
<g id="edge8" class="edge">
<title>node_128111372281776&#45;&gt;node_128111372720784</title>
<path fill="none" stroke="black" d="M2851.66,-106.38C2833.9,-96.23 2814.26,-85.01 2795.99,-74.56"/>
<polygon fill="black" stroke="black" points="2797.56,-71.43 2787.14,-69.51 2794.08,-77.51 2797.56,-71.43"/>
</g>
<!-- node_128111372737168 -->
<g id="node10" class="node">
<title>node_128111372737168</title>
<polygon fill="#f8f9fa" stroke="black" points="2920,-0.5 2920,-69.5 3267,-69.5 3267,-0.5 2920,-0.5"/>
<text text-anchor="middle" x="2998.5" y="-54.3" font-family="Courier,monospace" font-size="14.00">Rank:33</text>
<polyline fill="none" stroke="black" points="2920,-46.5 3077,-46.5 "/>
<text text-anchor="middle" x="2998.5" y="-31.3" font-family="Courier,monospace" font-size="14.00">Depth:1</text>
<polyline fill="none" stroke="black" points="2920,-23.5 3077,-23.5 "/>
<text text-anchor="middle" x="2998.5" y="-8.3" font-family="Courier,monospace" font-size="14.00">child_exec:SERIAL</text>
<polyline fill="none" stroke="black" points="3077,-0.5 3077,-69.5 "/>
<text text-anchor="middle" x="3172" y="-54.3" font-family="Courier,monospace" font-size="14.00">Shape:(1, 4, 1)</text>
<polyline fill="none" stroke="black" points="3077,-46.5 3267,-46.5 "/>
<text text-anchor="middle" x="3172" y="-31.3" font-family="Courier,monospace" font-size="14.00">Slice:[1:2, 0:4, 0:1]</text>
<polyline fill="none" stroke="black" points="3077,-23.5 3267,-23.5 "/>
<text text-anchor="middle" x="3172" y="-8.3" font-family="Courier,monospace" font-size="14.00">Offset:(1, 0, 0)</text>
</g>
<!-- node_128111372281776&#45;&gt;node_128111372737168 -->
<g id="edge9" class="edge">
<title>node_128111372281776&#45;&gt;node_128111372737168</title>
<path fill="none" stroke="black" d="M2969.66,-106.38C2987.52,-96.23 3007.27,-85.01 3025.64,-74.56"/>
<polygon fill="black" stroke="black" points="3027.58,-77.49 3034.54,-69.51 3024.12,-71.4 3027.58,-77.49"/>
</g>
<!-- node_128111386759408 -->
<g id="node11" class="node">
<title>node_128111386759408</title>
<polygon fill="#f8f9fa" stroke="black" points="3285,-0.5 3285,-69.5 3632,-69.5 3632,-0.5 3285,-0.5"/>
<text text-anchor="middle" x="3363.5" y="-54.3" font-family="Courier,monospace" font-size="14.00">Rank:39</text>
<polyline fill="none" stroke="black" points="3285,-46.5 3442,-46.5 "/>
<text text-anchor="middle" x="3363.5" y="-31.3" font-family="Courier,monospace" font-size="14.00">Depth:1</text>
<polyline fill="none" stroke="black" points="3285,-23.5 3442,-23.5 "/>
<text text-anchor="middle" x="3363.5" y="-8.3" font-family="Courier,monospace" font-size="14.00">child_exec:SERIAL</text>
<polyline fill="none" stroke="black" points="3442,-0.5 3442,-69.5 "/>
<text text-anchor="middle" x="3537" y="-54.3" font-family="Courier,monospace" font-size="14.00">Shape:(1, 4, 1)</text>
<polyline fill="none" stroke="black" points="3442,-46.5 3632,-46.5 "/>
<text text-anchor="middle" x="3537" y="-31.3" font-family="Courier,monospace" font-size="14.00">Slice:[2:3, 0:4, 0:1]</text>
<polyline fill="none" stroke="black" points="3442,-23.5 3632,-23.5 "/>
<text text-anchor="middle" x="3537" y="-8.3" font-family="Courier,monospace" font-size="14.00">Offset:(2, 0, 0)</text>
</g>
<!-- node_128111372281776&#45;&gt;node_128111386759408 -->
<g id="edge10" class="edge">
<title>node_128111372281776&#45;&gt;node_128111386759408</title>
<path fill="none" stroke="black" d="M3087.29,-106.45C3147.29,-95.06 3214.43,-82.32 3274.95,-70.83"/>
<polygon fill="black" stroke="black" points="3275.82,-74.23 3284.99,-68.93 3274.52,-67.35 3275.82,-74.23"/>
</g>
<!-- node_128111386923600 -->
<g id="node12" class="node">
<title>node_128111386923600</title>
<polygon fill="#f8f9fa" stroke="black" points="3650,-0.5 3650,-69.5 3997,-69.5 3997,-0.5 3650,-0.5"/>
<text text-anchor="middle" x="3728.5" y="-54.3" font-family="Courier,monospace" font-size="14.00">Rank:41</text>
<polyline fill="none" stroke="black" points="3650,-46.5 3807,-46.5 "/>
<text text-anchor="middle" x="3728.5" y="-31.3" font-family="Courier,monospace" font-size="14.00">Depth:1</text>
<polyline fill="none" stroke="black" points="3650,-23.5 3807,-23.5 "/>
<text text-anchor="middle" x="3728.5" y="-8.3" font-family="Courier,monospace" font-size="14.00">child_exec:SERIAL</text>
<polyline fill="none" stroke="black" points="3807,-0.5 3807,-69.5 "/>
<text text-anchor="middle" x="3902" y="-54.3" font-family="Courier,monospace" font-size="14.00">Shape:(1, 4, 1)</text>
<polyline fill="none" stroke="black" points="3807,-46.5 3997,-46.5 "/>
<text text-anchor="middle" x="3902" y="-31.3" font-family="Courier,monospace" font-size="14.00">Slice:[3:4, 0:4, 1:2]</text>
<polyline fill="none" stroke="black" points="3807,-23.5 3997,-23.5 "/>
<text text-anchor="middle" x="3902" y="-8.3" font-family="Courier,monospace" font-size="14.00">Offset:(3, 0, 1)</text>
</g>
<!-- node_128111372281776&#45;&gt;node_128111386923600 -->
<g id="edge11" class="edge">
<title>node_128111372281776&#45;&gt;node_128111386923600</title>
<path fill="none" stroke="black" d="M3092.14,-122.61C3288.76,-103.78 3581.37,-75.76 3639.65,-69.61"/>
<polygon fill="black" stroke="black" points="3640.26,-73.06 3649.79,-68.45 3639.46,-66.11 3640.26,-73.06"/>
</g>
<!-- node_128111372676688 -->
<g id="node13" class="node">
<title>node_128111372676688</title>
<polygon fill="#f8f9fa" stroke="black" points="4015,-0.5 4015,-69.5 4362,-69.5 4362,-0.5 4015,-0.5"/>
<text text-anchor="middle" x="4093.5" y="-54.3" font-family="Courier,monospace" font-size="14.00">Rank:47</text>
<polyline fill="none" stroke="black" points="4015,-46.5 4172,-46.5 "/>
<text text-anchor="middle" x="4093.5" y="-31.3" font-family="Courier,monospace" font-size="14.00">Depth:1</text>
<polyline fill="none" stroke="black" points="4015,-23.5 4172,-23.5 "/>
<text text-anchor="middle" x="4093.5" y="-8.3" font-family="Courier,monospace" font-size="14.00">child_exec:SERIAL</text>
<polyline fill="none" stroke="black" points="4172,-0.5 4172,-69.5 "/>
<text text-anchor="middle" x="4267" y="-54.3" font-family="Courier,monospace" font-size="14.00">Shape:(1, 4, 1)</text>
<polyline fill="none" stroke="black" points="4172,-46.5 4362,-46.5 "/>
<text text-anchor="middle" x="4267" y="-31.3" font-family="Courier,monospace" font-size="14.00">Slice:[0:1, 0:4, 2:3]</text>
<polyline fill="none" stroke="black" points="4172,-23.5 4362,-23.5 "/>
<text text-anchor="middle" x="4267" y="-8.3" font-family="Courier,monospace" font-size="14.00">Offset:(0, 0, 2)</text>
</g>
<!-- node_128111372281776&#45;&gt;node_128111372676688 -->
<g id="edge12" class="edge">
<title>node_128111372281776&#45;&gt;node_128111372676688</title>
<path fill="none" stroke="black" d="M3092.1,-128.4C3381.67,-109.91 3923.15,-75.32 4004.53,-69.31"/>
<polygon fill="black" stroke="black" points="4005.12,-72.77 4014.79,-68.45 4004.54,-65.79 4005.12,-72.77"/>
</g>
<!-- node_128111386188992 -->
<g id="node14" class="node">
<title>node_128111386188992</title>
<polygon fill="#f8f9fa" stroke="black" points="4380,-0.5 4380,-69.5 4727,-69.5 4727,-0.5 4380,-0.5"/>
<text text-anchor="middle" x="4458.5" y="-54.3" font-family="Courier,monospace" font-size="14.00">Rank:49</text>
<polyline fill="none" stroke="black" points="4380,-46.5 4537,-46.5 "/>
<text text-anchor="middle" x="4458.5" y="-31.3" font-family="Courier,monospace" font-size="14.00">Depth:1</text>
<polyline fill="none" stroke="black" points="4380,-23.5 4537,-23.5 "/>
<text text-anchor="middle" x="4458.5" y="-8.3" font-family="Courier,monospace" font-size="14.00">child_exec:SERIAL</text>
<polyline fill="none" stroke="black" points="4537,-0.5 4537,-69.5 "/>
<text text-anchor="middle" x="4632" y="-54.3" font-family="Courier,monospace" font-size="14.00">Shape:(1, 4, 1)</text>
<polyline fill="none" stroke="black" points="4537,-46.5 4727,-46.5 "/>
<text text-anchor="middle" x="4632" y="-31.3" font-family="Courier,monospace" font-size="14.00">Slice:[1:2, 0:4, 3:4]</text>
<polyline fill="none" stroke="black" points="4537,-23.5 4727,-23.5 "/>
<text text-anchor="middle" x="4632" y="-8.3" font-family="Courier,monospace" font-size="14.00">Offset:(1, 0, 3)</text>
</g>
<!-- node_128111372281776&#45;&gt;node_128111386188992 -->
<g id="edge13" class="edge">
<title>node_128111372281776&#45;&gt;node_128111386188992</title>
<path fill="none" stroke="black" d="M3092.21,-131.29C3460.74,-113.64 4269.16,-74.9 4369.55,-69.13"/>
<polygon fill="black" stroke="black" points="4370.05,-72.61 4379.79,-68.45 4369.58,-65.62 4370.05,-72.61"/>
</g>
<!-- node_128111372264720 -->
<g id="node15" class="node">
<title>node_128111372264720</title>
<polygon fill="#f8f9fa" stroke="black" points="4745,-0.5 4745,-69.5 5092,-69.5 5092,-0.5 4745,-0.5"/>
<text text-anchor="middle" x="4823.5" y="-54.3" font-family="Courier,monospace" font-size="14.00">Rank:55</text>
<polyline fill="none" stroke="black" points="4745,-46.5 4902,-46.5 "/>
<text text-anchor="middle" x="4823.5" y="-31.3" font-family="Courier,monospace" font-size="14.00">Depth:1</text>
<polyline fill="none" stroke="black" points="4745,-23.5 4902,-23.5 "/>
<text text-anchor="middle" x="4823.5" y="-8.3" font-family="Courier,monospace" font-size="14.00">child_exec:SERIAL</text>
<polyline fill="none" stroke="black" points="4902,-0.5 4902,-69.5 "/>
<text text-anchor="middle" x="4997" y="-54.3" font-family="Courier,monospace" font-size="14.00">Shape:(1, 4, 1)</text>
<polyline fill="none" stroke="black" points="4902,-46.5 5092,-46.5 "/>
<text text-anchor="middle" x="4997" y="-31.3" font-family="Courier,monospace" font-size="14.00">Slice:[2:3, 0:4, 3:4]</text>
<polyline fill="none" stroke="black" points="4902,-23.5 5092,-23.5 "/>
<text text-anchor="middle" x="4997" y="-8.3" font-family="Courier,monospace" font-size="14.00">Offset:(2, 0, 3)</text>
</g>
<!-- node_128111372281776&#45;&gt;node_128111372264720 -->
<g id="edge14" class="edge">
<title>node_128111372281776&#45;&gt;node_128111372264720</title>
<path fill="none" stroke="black" d="M3092.26,-133.03C3530.67,-116.23 4618.27,-74.53 4734.69,-69.02"/>
<polygon fill="black" stroke="black" points="4735,-72.5 4744.79,-68.45 4734.61,-65.52 4735,-72.5"/>
</g>
<!-- node_128111386759104 -->
<g id="node16" class="node">
<title>node_128111386759104</title>
<polygon fill="#f8f9fa" stroke="black" points="5110,-0.5 5110,-69.5 5457,-69.5 5457,-0.5 5110,-0.5"/>
<text text-anchor="middle" x="5188.5" y="-54.3" font-family="Courier,monospace" font-size="14.00">Rank:57</text>
<polyline fill="none" stroke="black" points="5110,-46.5 5267,-46.5 "/>
<text text-anchor="middle" x="5188.5" y="-31.3" font-family="Courier,monospace" font-size="14.00">Depth:1</text>
<polyline fill="none" stroke="black" points="5110,-23.5 5267,-23.5 "/>
<text text-anchor="middle" x="5188.5" y="-8.3" font-family="Courier,monospace" font-size="14.00">child_exec:SERIAL</text>
<polyline fill="none" stroke="black" points="5267,-0.5 5267,-69.5 "/>
<text text-anchor="middle" x="5362" y="-54.3" font-family="Courier,monospace" font-size="14.00">Shape:(1, 4, 1)</text>
<polyline fill="none" stroke="black" points="5267,-46.5 5457,-46.5 "/>
<text text-anchor="middle" x="5362" y="-31.3" font-family="Courier,monospace" font-size="14.00">Slice:[3:4, 0:4, 0:1]</text>
<polyline fill="none" stroke="black" points="5267,-23.5 5457,-23.5 "/>
<text text-anchor="middle" x="5362" y="-8.3" font-family="Courier,monospace" font-size="14.00">Offset:(3, 0, 0)</text>
</g>
<!-- node_128111372281776&#45;&gt;node_128111386759104 -->
<g id="edge15" class="edge">
<title>node_128111372281776&#45;&gt;node_128111386759104</title>
<path fill="none" stroke="black" d="M3092.13,-134.2C3593.37,-118.18 4967.29,-74.29 5099.56,-68.95"/>
<polygon fill="black" stroke="black" points="5099.97,-72.43 5109.79,-68.45 5099.64,-65.44 5099.97,-72.43"/>
</g>
<!-- node_128111372429232 -->
<g id="node17" class="node">
<title>node_128111372429232</title>
<polygon fill="#f8f9fa" stroke="black" points="5475,-0.5 5475,-69.5 5822,-69.5 5822,-0.5 5475,-0.5"/>
<text text-anchor="middle" x="5553.5" y="-54.3" font-family="Courier,monospace" font-size="14.00">Rank:63</text>
<polyline fill="none" stroke="black" points="5475,-46.5 5632,-46.5 "/>
<text text-anchor="middle" x="5553.5" y="-31.3" font-family="Courier,monospace" font-size="14.00">Depth:1</text>
<polyline fill="none" stroke="black" points="5475,-23.5 5632,-23.5 "/>
<text text-anchor="middle" x="5553.5" y="-8.3" font-family="Courier,monospace" font-size="14.00">child_exec:SERIAL</text>
<polyline fill="none" stroke="black" points="5632,-0.5 5632,-69.5 "/>
<text text-anchor="middle" x="5727" y="-54.3" font-family="Courier,monospace" font-size="14.00">Shape:(1, 4, 1)</text>
<polyline fill="none" stroke="black" points="5632,-46.5 5822,-46.5 "/>
<text text-anchor="middle" x="5727" y="-31.3" font-family="Courier,monospace" font-size="14.00">Slice:[0:1, 0:4, 1:2]</text>
<polyline fill="none" stroke="black" points="5632,-23.5 5822,-23.5 "/>
<text text-anchor="middle" x="5727" y="-8.3" font-family="Courier,monospace" font-size="14.00">Offset:(0, 0, 1)</text>
</g>
<!-- node_128111372281776&#45;&gt;node_128111372429232 -->
<g id="edge16" class="edge">
<title>node_128111372281776&#45;&gt;node_128111372429232</title>
<path fill="none" stroke="black" d="M3092.02,-135.03C3651.18,-119.72 5318.23,-74.06 5464.54,-68.89"/>
<polygon fill="black" stroke="black" points="5464.95,-72.38 5474.79,-68.45 5464.65,-65.38 5464.95,-72.38"/>
</g>
</g>
</svg>
